<svg width="24" height="24" viewBox="0 0 24 24" fill="none" xmlns="http://www.w3.org/2000/svg">
<path fill-rule="evenodd" clip-rule="evenodd" d="M16.4033 4.64178C15.6595 3.9661 14.7765 3.47692 13.8265 3.2022C13.7274 2.9744 13.5858 2.76488 13.4067 2.58582C13.0317 2.21074 12.523 2 11.9926 2C11.4621 2 10.9534 2.21074 10.5784 2.58582C10.3958 2.76839 10.2522 2.98262 10.1528 3.2156C9.22023 3.49268 8.35352 3.97696 7.62168 4.64178C6.4199 5.73352 5.66801 7.23375 5.51255 8.84991L5.30247 10.91C5.11775 12.6853 4.45803 14.3779 3.39256 15.8099C3.17256 16.1071 3.03925 16.4595 3.00743 16.8278C2.9756 17.1962 3.04649 17.5661 3.21226 17.8966C3.37802 18.2271 3.63212 18.5052 3.94639 18.7C4.26066 18.8947 4.6228 18.9986 4.99253 18.9999H18.9925C19.3642 19.0035 19.7295 18.9034 20.0475 18.7108C20.3654 18.5183 20.6234 18.241 20.7925 17.91C20.9644 17.5776 21.0396 17.2036 21.0095 16.8306C20.9794 16.4576 20.8454 16.1005 20.6225 15.7999C19.5548 14.3739 18.8977 12.6828 18.7225 10.91L18.5126 8.84991C18.3571 7.23375 17.6051 5.73352 16.4033 4.64178ZM9.2854 20.2929C9.09786 20.4804 8.99255 20.7348 8.99255 21C8.99255 21.2652 9.09786 21.5196 9.2854 21.7071C9.47294 21.8946 9.72734 22 9.99255 22H13.9926C14.2578 22 14.512 21.8946 14.6996 21.7071C14.8871 21.5196 14.9926 21.2652 14.9926 21C14.9926 20.7348 14.8871 20.4804 14.6996 20.2929C14.512 20.1054 14.2578 20 13.9926 20H9.99255C9.72734 20 9.47294 20.1054 9.2854 20.2929Z" fill="#646464"/>
<path d="M18 10C20.2091 10 22 8.20914 22 6C22 3.79086 20.2091 2 18 2C15.7909 2 14 3.79086 14 6C14 8.20914 15.7909 10 18 10Z" fill="#E61B00"/>
</svg>
